<svg width="163" height="30" viewBox="0 0 163 30" fill="none" xmlns="http://www.w3.org/2000/svg">
<rect x="0.666748" y="1.5" width="27" height="27" rx="13.5" fill="black" fill-opacity="0.85"/>
<path d="M16.1572 9.06056H14.7909C12.4488 9.06056 11.2777 10.2316 11.2777 11.9883C11.2777 13.9401 12.0584 14.916 13.815 16.0871L15.1813 17.063L11.2777 23.1136H8.15479L11.8632 17.6485C9.71623 16.0871 8.54515 14.7208 8.54515 12.1835C8.54515 9.06056 10.6921 6.91357 14.7909 6.91357H18.8897V23.1136H16.1572V9.06056Z" fill="white"/>
<path d="M34.8827 4.95543V25H38.3724V7.66649H44.6021V25H48.0919V4.95543H34.8827ZM54.1375 10.4929H50.965V29.182H54.397V23.2984C55.2623 24.5962 56.5313 25.2884 58.0022 25.2884C61.3478 25.2884 63.655 22.6062 63.655 17.732C63.655 12.8867 61.4054 10.2045 58.1752 10.2045C56.5601 10.2045 55.2334 10.9544 54.3105 12.3676L54.1375 10.4929ZM57.137 22.5773C55.32 22.5773 54.397 21.1065 54.397 17.7609C54.397 14.3865 55.3776 12.9156 57.31 12.9156C59.1847 12.9156 60.1076 14.3865 60.1076 17.732C60.1076 21.1065 59.127 22.5773 57.137 22.5773ZM76.6522 15.1075C76.6522 11.5889 74.8641 10.2622 71.2301 10.2622C68.9517 10.2622 67.1635 10.9832 66.1252 11.5889V14.4442C67.0482 13.752 69.067 13.0021 70.8263 13.0021C72.4703 13.0021 73.2202 13.5789 73.2202 15.1363V15.9439H72.6722C67.4231 15.9439 65.087 17.6744 65.087 20.6162C65.087 23.5579 66.8751 25.2019 69.5285 25.2019C71.5474 25.2019 72.4126 24.5385 73.0759 23.8464H73.2202C73.249 24.2213 73.3644 24.7116 73.4797 25H76.8253C76.7099 23.8175 76.6522 22.635 76.6522 21.4525V15.1075ZM73.2202 21.5391C72.7875 22.1736 71.98 22.6927 70.7687 22.6927C69.3266 22.6927 68.6056 21.8275 68.6056 20.5296C68.6056 18.828 69.7881 18.2223 72.7299 18.2223H73.2202V21.5391ZM87.9199 25H91.8134L86.3048 17.1841L91.1501 10.4929H87.6891L82.8438 17.1841V10.4929H79.4118V25H82.8438V17.8762L87.9199 25ZM103.179 13.204V10.4929H91.6715V13.204H95.7092V25H99.1413V13.204H103.179ZM105.211 10.4929V25H108.182L113.488 16.0304V25H116.834V10.4929H113.863L108.557 19.4625V10.4929H105.211ZM128.224 25H132.118L126.609 17.1841L131.454 10.4929H127.993L123.148 17.1841V10.4929H119.716V25H123.148V17.8762L128.224 25ZM135.138 29.4704C138.339 29.4704 139.521 27.1919 140.502 24.2213L145.03 10.4929H141.713L138.512 21.3949L135.311 10.4929H131.705L136.695 25.6345C136.32 26.3267 135.772 26.7593 134.82 26.7593C134.186 26.7593 133.638 26.5574 133.263 26.1825V28.9801C133.263 28.9801 133.782 29.4704 135.138 29.4704ZM158.705 25H162.051L161.993 10.4929H157.292L154.148 20.1547L151.322 10.4929H146.332V25H149.245V14.1557L152.389 25H155.186L158.705 14.1557V25Z" fill="black" fill-opacity="0.85"/>
</svg>
