<svg width="26" height="27" viewBox="0 0 26 27" fill="none" xmlns="http://www.w3.org/2000/svg">
<path fill-rule="evenodd" clip-rule="evenodd" d="M5.44512 2.4814C4.65053 1.35224 3.09102 1.08102 1.96187 1.87561C0.832712 2.67021 0.561493 4.22971 1.35608 5.35886C1.8485 6.05862 2.42694 6.65266 2.93027 7.1351C3.16364 7.35878 3.40037 7.57662 3.61346 7.77271L3.61347 7.77271L3.66891 7.82374C3.90409 8.04022 4.10951 8.23028 4.29888 8.41494C4.367 8.48136 4.43466 8.54715 4.50188 8.61236C4.54263 8.65737 4.58423 8.70229 4.62667 8.747C4.9856 9.12513 5.35334 9.48198 5.69307 9.80987L5.78398 9.89758L5.784 9.8976C6.09725 10.1998 6.38457 10.477 6.6621 10.7615C6.88398 10.989 7.10265 11.2326 7.3489 11.5094L7.41247 11.5809C7.63381 11.8299 7.88034 12.1072 8.13722 12.3776C8.19961 12.4433 8.26422 12.5088 8.33046 12.5741C9.42058 13.8929 10.532 15.2052 11.7435 16.5055C12.6401 17.4676 13.5991 18.4557 14.5361 19.4211L14.5363 19.4213C15.1896 20.0944 15.8321 20.7564 16.4352 21.3908C16.8408 21.8174 17.5098 22.4359 18.1555 23.0328L18.1555 23.0328L18.1555 23.0329C18.3648 23.2264 18.5717 23.4176 18.7664 23.5993C19.6903 24.4619 20.3496 25.1189 20.5865 25.4411C21.4044 26.5535 22.9692 26.7922 24.0816 25.9743C25.1939 25.1563 25.4326 23.5915 24.6147 22.4792C24.0438 21.7027 22.9949 20.7067 22.1783 19.9444C21.9074 19.6915 21.6506 19.454 21.4126 19.2339L21.412 19.2334L21.412 19.2333C20.8198 18.6856 20.3443 18.2459 20.059 17.9458C19.3667 17.2176 18.7019 16.5332 18.0478 15.8598C17.1599 14.9458 16.2918 14.0522 15.4016 13.0968C14.2137 11.822 13.1113 10.5137 11.9652 9.1231C10.8861 7.81378 9.65485 6.63077 8.54471 5.56415L8.54467 5.56411C8.28521 5.31482 8.03237 5.07189 7.78964 4.83519C7.54207 4.59378 7.28704 4.35842 7.05522 4.14502L7.00588 4.09961L7.00588 4.09961C6.7855 3.89679 6.58503 3.71229 6.39011 3.52546C5.96706 3.11997 5.66061 2.78762 5.44512 2.4814Z" fill="black"/>
<path fill-rule="evenodd" clip-rule="evenodd" d="M24.8198 4.96746C25.6634 3.8744 25.4611 2.30446 24.3681 1.4609C23.275 0.617348 21.7051 0.81961 20.8615 1.91267C20.7292 2.08408 20.5508 2.314 20.345 2.57852C20.3044 2.61272 20.2725 2.64197 20.2504 2.66265C20.1991 2.71058 20.1571 2.75398 20.1374 2.77442C20.1069 2.80336 20.0693 2.83841 20.0267 2.87812L20.0264 2.87841C19.8543 3.03897 19.6007 3.27551 19.3986 3.49209C18.8242 4.10751 18.2586 4.80294 17.775 5.55521C17.5814 5.85636 17.4078 6.16417 17.2662 6.41524L17.2258 6.4868C17.1755 6.57592 17.1285 6.65853 17.0837 6.73601C16.2475 7.75369 15.3622 8.74784 14.4342 9.77396C14.2142 10.0173 13.9963 10.2589 13.7799 10.4989L13.7797 10.4991L13.7797 10.4991C12.1678 12.2867 10.6419 13.9789 8.9724 15.5355C8.29677 16.1654 7.58907 16.7766 6.8427 17.4163L6.6246 17.6031C5.95461 18.1769 5.25303 18.7777 4.56799 19.3992C4.25044 19.6873 3.97133 19.9495 3.7142 20.1912L3.71419 20.1912C3.09937 20.7689 2.61019 21.2286 2.02164 21.6406C0.890514 22.4324 0.615427 23.9912 1.40721 25.1223C2.199 26.2535 3.75783 26.5286 4.88895 25.7368C4.89237 25.7344 4.89578 25.732 4.8992 25.7296C5.05049 25.6947 5.2001 25.6414 5.34511 25.5689C5.75529 25.3638 5.99885 25.0794 6.09501 24.961C6.13244 24.9149 6.16455 24.8718 6.18386 24.8455C6.19357 24.8356 6.20974 24.8192 6.23474 24.7943L6.24903 24.7802C6.3126 24.7174 6.45455 24.577 6.58791 24.4129C6.66273 24.3208 6.73751 24.2305 6.81161 24.1433C7.00599 23.9638 7.19117 23.7896 7.3648 23.6262L7.36486 23.6261C7.56981 23.4332 7.75866 23.2555 7.92755 23.1023C8.55651 22.5317 9.20306 21.978 9.88135 21.397L10.0964 21.2128C10.842 20.5738 11.6216 19.9016 12.382 19.1926C14.2219 17.4772 15.9017 15.6133 17.498 13.8421C17.7144 13.6021 17.9292 13.3637 18.1426 13.1277C19.358 11.7838 20.5982 10.3881 21.7677 8.8845C21.9968 8.58995 22.3711 8.1105 22.7868 7.57798C23.5295 6.62659 24.4044 5.50583 24.8198 4.96746Z" fill="black"/>
</svg>
