<svg width="555" height="124" viewBox="0 0 555 124" fill="none" xmlns="http://www.w3.org/2000/svg">
<path fill-rule="evenodd" clip-rule="evenodd" d="M321.227 123.44C321.227 116.881 321.625 110.631 322.388 104.683C328.513 105.512 336.742 106.547 346.451 107.575C368.087 109.866 397.094 112.122 426.535 111.975C455.953 111.828 485.917 109.282 509.418 101.913C532.859 94.5617 550.367 82.2351 553.88 62.1986C557.414 42.0411 543.807 25.5548 522.393 14.8148C500.923 4.04684 471.137 -1.24802 440.995 1.0157C410.846 3.27995 380.17 13.1199 357.002 32.8136C338.163 48.8273 324.364 71.2958 319.832 101.303C317.154 100.928 315.028 100.615 313.531 100.388C312.697 100.262 312.058 100.162 311.628 100.095C311.414 100.061 311.251 100.035 311.143 100.018L311.021 99.9982L310.991 99.9933L310.984 99.9921C310.982 99.9918 310.981 99.9917 310.74 101.472L310.981 99.9917L310.947 99.9862L310.913 99.9822L310.74 101.472C310.913 99.9822 310.912 99.9821 310.911 99.982L310.904 99.9812L310.877 99.978L310.765 99.9649C310.667 99.9533 310.518 99.9358 310.322 99.9123C309.93 99.8654 309.345 99.7948 308.578 99.7002C307.043 99.511 304.778 99.2258 301.858 98.8421C296.018 98.0748 287.56 96.9138 277.095 95.3395C256.165 92.1908 227.211 87.3899 195.117 80.7813C133.374 68.0677 60.1953 48.6996 10.1194 21.6211C12.1122 21.9438 13.9849 22.6615 15.9594 23.4902C16.2405 23.6081 16.5245 23.7288 16.8116 23.8508L16.8127 23.8513C19.207 24.8688 21.8193 25.9789 24.7591 26.3709C27.9624 26.798 31.3658 26.8087 34.6983 26.7194C35.923 26.6866 37.1276 26.6408 38.3126 26.5959H38.3127C40.402 26.5166 42.4306 26.4396 44.4018 26.4396C45.2302 26.4396 45.9018 25.768 45.9018 24.9396C45.9018 24.1112 45.2302 23.4396 44.4018 23.4396C42.3813 23.4396 40.2438 23.5204 38.11 23.6011H38.11C36.9382 23.6454 35.7675 23.6896 34.6179 23.7205C31.3236 23.8088 28.1143 23.7917 25.1556 23.3972C22.6432 23.0622 20.4134 22.1177 17.9747 21.0847L17.9731 21.084C17.6919 20.9649 17.4079 20.8446 17.1204 20.7239C14.4019 19.583 11.421 18.4396 7.90179 18.4396C7.34708 18.4396 6.56543 18.3589 5.67645 18.2577L5.39339 18.2252C4.63294 18.1378 3.81687 18.044 3.17207 18.0179C2.82322 18.0038 2.4054 18.0027 2.03363 18.0737C1.85543 18.1078 1.55666 18.1812 1.26468 18.3728C0.928395 18.5935 0.543891 19.0215 0.503343 19.6666C0.469028 20.2125 0.70704 20.6193 0.844303 20.8157C0.997377 21.0347 1.18298 21.2152 1.34675 21.3568C1.6786 21.6436 2.13327 21.95 2.68561 22.2814C5.26646 23.8299 6.38968 25.1783 8.32798 27.5052L8.47168 27.6776C10.2389 29.7983 10.9018 32.8361 10.9018 35.884C10.9018 38.6003 11.7017 41.1426 12.5716 43.4871C12.7975 44.0961 13.0258 44.6868 13.2495 45.2657C13.9155 46.9889 14.5409 48.6071 14.9429 50.2884C15.1356 51.0942 15.9449 51.5911 16.7507 51.3985C17.5564 51.2058 18.0533 50.3964 17.8607 49.5907C17.4072 47.6945 16.6785 45.8107 15.9946 44.0427L15.9946 44.0427L15.9945 44.0425C15.7837 43.4975 15.5771 42.9635 15.3842 42.4435C14.5367 40.1595 13.9018 38.0376 13.9018 35.884C13.9018 32.5073 13.1845 28.6469 10.7763 25.7571L10.5823 25.5241C10.4546 25.3707 10.3292 25.2201 10.2054 25.072C60.6613 51.956 133.371 71.1301 194.512 83.7197C226.671 90.3416 255.68 95.1516 276.649 98.3061C287.134 99.8835 295.611 101.047 301.467 101.817C304.395 102.201 306.669 102.488 308.211 102.678C308.982 102.773 309.57 102.844 309.966 102.891C310.164 102.915 310.314 102.932 310.415 102.944L310.528 102.958L310.542 102.96L310.668 102.98C310.779 102.998 310.945 103.024 311.162 103.058C311.597 103.127 312.241 103.227 313.082 103.354C314.589 103.582 316.727 103.898 319.417 104.274C318.634 110.358 318.227 116.744 318.227 123.44H321.227ZM346.767 104.592C337.098 103.568 328.902 102.537 322.804 101.712C327.237 72.4164 340.687 50.6193 358.945 35.0994C381.505 15.9224 411.519 6.23786 441.22 4.00727C470.928 1.77616 500.152 7.01617 521.048 17.4964C542 28.0045 554.116 43.4797 550.925 61.6806C547.713 80.0024 531.651 91.7965 508.52 99.0501C485.448 106.285 455.838 108.828 426.521 108.975C397.228 109.121 368.34 106.876 346.767 104.592Z" fill="white"/>
</svg>
