<svg width="84" height="75" viewBox="0 0 84 75" fill="none" xmlns="http://www.w3.org/2000/svg">
<path d="M31.313 71.6899C20.1925 57.7388 -11.432 26.1293 8.38575 6.30093C19.8091 -5.12861 31.4677 8.81149 37.3128 18.0924C39.9701 22.3117 42.1131 26.6265 44.3302 31.063C45.0912 32.5857 45.9798 37.0879 46.7408 35.5652C47.901 33.2437 47.3389 28.6522 48.1871 25.9176C49.3605 22.1348 51.1631 18.7857 53.7047 15.7341C58.2773 10.244 69.2173 0.477437 77.1141 6.62251C87.2915 14.5423 79.2055 37.1505 74.1143 46.2311C69.8035 53.9197 64.1202 62.0191 57.883 68.2596C57.1412 69.0019 52.1211 75.0282 54.0261 70.6715C55.5908 67.0931 57.3473 62.7439 57.3473 58.7729C57.3473 54.8898 53.9375 65.7518 52.0976 69.1708C48.4639 75.923 59.0713 71.6899 63.1327 71.6899" stroke="#1C1C1C" stroke-width="4" stroke-linecap="round"/>
</svg>
