<svg width="386" height="127" viewBox="0 0 386 127" fill="none" xmlns="http://www.w3.org/2000/svg">
<path d="M140.12 35.8357C163.34 23.7546 174.512 65.9237 179.234 69.9514C183.956 73.979 197.641 25.0847 224.208 41.4785C250.775 57.8724 181.511 119.901 174.954 118.516C166.758 116.786 116.9 47.9169 140.12 35.8357Z" stroke="black" stroke-width="4" stroke-linecap="round"/>
<path d="M7.76782 4.02373C32.1944 -8.16472 58.3237 38.6847 58.3237 38.6847C58.3237 38.6847 89.6679 -7.62953 110.875 4.02384C132.082 15.6772 64.9506 92.1994 58.3237 87.8191C31.6492 70.1879 -14.1664 14.9686 7.76782 4.02373Z" stroke="black" stroke-width="4" stroke-linecap="round"/>
<path d="M270.474 27.6125C303.189 13.8937 322.874 61.3975 324.891 61.6022C326.908 61.807 353.285 12.2558 378.64 23.7222C403.994 35.1886 331.534 127.229 324.891 122.849C298.151 105.218 237.758 41.3313 270.474 27.6125Z" stroke="black" stroke-width="4" stroke-linecap="round"/>
</svg>
