<svg width="42" height="42" viewBox="0 0 42 42" fill="none" xmlns="http://www.w3.org/2000/svg">
<path fill-rule="evenodd" clip-rule="evenodd" d="M4.18699 21.2357C5.08722 15.8236 6.49682 11.5461 9.00246 8.62271C11.4143 5.80875 15.0641 4 21.0827 4C27.0916 4 31.2308 5.94915 33.8867 8.88071C36.5726 11.8454 37.9513 16.0477 37.9513 20.9076C37.9513 30.2492 30.3951 37.8151 21.0827 37.8151C16.3483 37.8151 11.663 36.0149 8.40668 33.0215C5.18803 30.0629 3.39647 25.9883 4.18699 21.2357ZM21.0827 0C14.1629 0 9.29498 2.13488 5.96537 6.01962C2.72957 9.79492 1.17405 14.9712 0.241203 20.5794C-0.801349 26.8472 1.63097 32.2263 5.69969 35.9664C9.73068 39.6718 15.3963 41.8151 21.0827 41.8151C32.612 41.8151 41.9513 32.4506 41.9513 20.9076C41.9513 15.3251 40.3649 10.0736 36.8511 6.19509C33.3073 2.28345 28.0122 0 21.0827 0ZM34.1626 20.1584L34.5718 20.382C32.6251 20.8691 30.8669 21.4023 29.2023 22.0083C24.7741 23.6206 21.0075 25.7489 16.1109 28.9C14.7712 29.7622 13.3469 30.7009 11.8014 31.7265C12.0049 29.8745 12.1696 28.1925 12.293 26.6095C12.6542 21.9789 12.663 18.1953 12.262 13.479C12.1443 12.094 11.9912 10.6285 11.8014 9.03745C13.1549 9.5112 14.5407 10.0671 16.0162 10.7208C19.6841 12.3459 23.9068 14.576 29.5691 17.6533C31.0031 18.4327 32.5295 19.2664 34.1626 20.1584ZM16.4075 15.3029C18.7569 16.4216 21.4199 17.8068 24.6427 19.5378C21.9111 20.7496 19.3139 22.1885 16.4705 23.942C16.6102 21.0308 16.5948 18.3081 16.4075 15.3029Z" fill="white"/>
</svg>
