<svg width="60" height="60" viewBox="0 0 60 60" fill="none" xmlns="http://www.w3.org/2000/svg">
<path d="M7.54488 41.7137C10.7803 38.3549 13.928 34.8599 17.3999 31.7387C20.2083 29.2141 23.2487 27.3356 25.6245 24.3818C28.5668 20.7241 32.1506 17.7772 35.3306 14.3145C36.7891 12.728 38.3641 11.288 39.9772 9.86296C41.3687 8.63411 43.7387 5.61911 45.473 5.07911C48.6056 4.10296 51.4949 6.43719 53.0433 8.80373C56.0087 13.3337 54.256 16.5414 50.9076 19.9222C47.341 23.5222 43.6164 26.9595 39.8814 30.3818C32.4333 37.2057 24.9656 44.0076 17.5083 50.8199H19.5472C15.8041 46.4906 12.0426 42.4649 6.94604 39.7476C5.30757 38.8741 3.84911 41.363 5.48988 42.2376C10.3707 44.8406 13.936 48.7291 17.5072 52.8599C18.0333 53.468 19.0049 53.3549 19.5472 52.8599C29.6699 43.613 40.0014 34.5437 49.8564 25.0095C52.7064 22.2518 58.4341 18.248 58.8737 13.8599C59.2949 9.64834 54.5145 5.69988 51.6945 3.23642C49.4606 1.28411 47.326 0.498342 44.6595 2.07911C39.8814 4.91296 35.4483 9.92642 31.771 14.0422C23.6399 23.1437 14.0226 30.8306 5.50488 39.6749C4.21604 41.0122 6.25373 43.0545 7.54488 41.7137Z" fill="black"/>
<path d="M36.9117 9.72005C37.8013 12.1074 39.1098 14.8027 41.0275 16.5393C42.0348 17.4508 43.2809 18.0624 44.3782 18.8527C45.8667 19.9247 47.1359 21.2193 48.3002 22.6316C49.4817 24.0658 51.5125 22.0143 50.3401 20.5916C48.6613 18.5551 46.7321 16.9547 44.5375 15.5066C42.1801 13.9512 40.679 11.5974 39.6913 8.95275C39.0498 7.23005 36.2598 7.97544 36.9105 9.72005H36.9117ZM58.0525 55.8808L1.94785 55.7262C0.0901534 55.7204 0.0878458 58.6051 1.94785 58.6108L58.0525 58.7643C59.9102 58.7701 59.9125 55.8854 58.0525 55.8797V55.8808Z" fill="black"/>
<path d="M17.1234 51.6324C12.0119 52.4115 6.92267 53.3304 1.86144 54.3878C0.0452823 54.7674 0.813744 57.5482 2.62874 57.1686C7.68998 56.1111 12.7792 55.1923 17.8907 54.4132C19.7195 54.1351 18.943 51.3555 17.1234 51.6324Z" fill="black"/>
<path d="M4.77163 41.348C4.59855 42.4707 3.90624 43.4388 3.55778 44.5118C3.15047 45.7718 2.91393 47.1069 2.61047 48.3934C2.03124 50.8419 1.96778 53.738 1.08047 56.0503C0.414704 57.7857 3.2024 58.5357 3.86124 56.8176C4.76816 54.4569 4.80393 51.6449 5.39124 49.1607C5.66816 47.9953 5.87817 46.7872 6.23009 45.6426C6.6097 44.4103 7.35624 43.3949 7.5524 42.1153C7.83163 40.2992 5.05316 39.5157 4.77163 41.348Z" fill="black"/>
</svg>
