<svg width="76" height="52" viewBox="0 0 76 52" fill="none" xmlns="http://www.w3.org/2000/svg">
<path d="M37.4303 3.00003C27.67 8.98684 17.9309 15.7581 7.43631 20.4453C5.75295 21.1972 3.58359 21.9427 2.18186 23.2233C0.22775 25.0084 14.6241 34.3568 16.5221 35.7794C18.1592 37.0066 37.4303 54.2724 37.4303 49.0023C37.4303 46.0255 37.2379 33.0015 40.3859 33.0015C50.6134 33.0015 60.6874 34.0016 70.9273 34.0016C74.0759 34.0016 73.8829 23.1647 73.8829 20.0009C73.8829 17.4777 74.7637 15.0006 71.6936 15.0006C64.9431 15.0006 58.1926 15.0006 51.4421 15.0006C50.4115 15.0006 36.0685 16.3377 35.8978 14.7784C35.5885 11.9526 38.2067 4.42411 39.4007 2" stroke="black" stroke-width="4" stroke-linecap="round"/>
</svg>
