<svg width="76" height="52" viewBox="0 0 76 52" fill="none" xmlns="http://www.w3.org/2000/svg">
<path d="M38.5697 49C48.33 43.0132 58.0691 36.2419 68.5637 31.5547C70.2471 30.8028 72.4164 30.0572 73.8181 28.7767C75.7722 26.9916 61.3759 17.6432 59.4779 16.2206C57.8408 14.9934 38.5697 -2.2724 38.5697 2.99767C38.5697 5.9745 38.7621 18.9985 35.6141 18.9985C25.3866 18.9985 15.3126 17.9984 5.07272 17.9984C1.92409 17.9984 2.11708 28.8353 2.11708 31.9991C2.11708 34.5223 1.23628 36.9994 4.30645 36.9994C11.0569 36.9994 17.8074 36.9994 24.5579 36.9994C25.5885 36.9994 39.9315 35.6623 40.1022 37.2216C40.4115 40.0474 37.7933 47.5759 36.5993 50" stroke="black" stroke-width="4" stroke-linecap="round"/>
</svg>
