<svg width="100" height="101" viewBox="0 0 100 101" fill="none" xmlns="http://www.w3.org/2000/svg">
<path fill-rule="evenodd" clip-rule="evenodd" d="M74.7386 16.8224C75.2449 17.5173 75.2381 18.4292 74.7892 19.106C75.0603 19.6496 75.0815 20.3095 74.7889 20.8946C74.5872 21.2979 74.3062 21.5617 74.133 21.705C73.9431 21.8622 73.7492 21.9828 73.5896 22.072C73.2711 22.2498 72.9244 22.3928 72.6299 22.5015C72.0744 22.7064 71.4911 22.8663 71.1324 22.9497C71.1059 22.9642 71.0383 23.0024 70.9258 23.0839C70.7158 23.2359 70.462 23.4549 70.1724 23.729C69.8877 23.9985 69.607 24.2842 69.3288 24.5674L69.3246 24.5716L69.2998 24.5969L69.2997 24.5969C69.0497 24.8514 68.7635 25.1428 68.5223 25.3569C66.337 27.2969 64.3337 29.2704 62.2112 31.3673C59.8991 33.6516 57.0751 35.2547 54.514 36.7086L54.5137 36.7087L54.5137 36.7088C53.8271 37.0985 53.1594 37.4776 52.5255 37.8561C51.4059 38.5248 50.273 39.2227 49.1279 39.928L49.1277 39.9281L49.1276 39.9282C47.0128 41.2309 44.8564 42.5592 42.6658 43.7762C41.8745 44.2159 41.0794 44.6624 40.2797 45.1116L40.2796 45.1116C38.673 46.0141 37.0476 46.927 35.3967 47.815C34.8891 48.2602 34.3685 48.7097 33.8383 49.144C31.9747 50.6704 29.8517 52.1308 27.1301 53.0137C26.5374 53.2059 25.8328 53.3531 25.1167 53.475C27.7588 54.3655 30.4001 55.5373 32.9369 56.6627C34.3114 57.2725 35.6552 57.8686 36.9518 58.399C37.9168 58.7938 38.877 59.2912 39.7421 59.7392L39.7427 59.7395C39.9681 59.8563 40.187 59.9697 40.3978 60.077C41.4757 60.6258 42.4272 61.0645 43.3765 61.3177C44.1893 61.5344 44.9181 61.8979 45.4738 62.1816L45.6779 62.2861L45.6779 62.2861C46.1847 62.5457 46.5507 62.7333 46.925 62.8675C48.3027 63.3614 49.6817 64.0181 50.962 64.6987C51.6491 64.8636 52.3374 65.0306 53.0268 65.2007C63.9123 67.8872 74.8879 71.3638 83.4684 80.6422C84.2184 81.4532 84.1689 82.7185 83.358 83.4685C82.547 84.2185 81.2817 84.169 80.5317 83.358C79.7855 82.5512 79.0186 81.7919 78.2321 81.076C77.9565 81.2919 77.6207 81.4381 77.2481 81.4847C76.4316 81.5868 75.6687 81.1814 75.276 80.5148C75.1185 80.42 74.8842 80.3002 74.5789 80.164C74.2252 80.0061 73.8472 79.857 73.504 79.7254C73.4436 79.7023 73.3787 79.6776 73.312 79.6523L73.3118 79.6522C73.0627 79.5576 72.7879 79.4532 72.6253 79.3802C71.426 78.8418 70.2139 78.3409 68.9695 77.8268L68.9694 77.8267C68.6878 77.7104 68.4046 77.5933 68.1195 77.475C66.5904 76.8406 65.0236 76.1759 63.4821 75.4216C62.1823 74.7855 60.849 74.1609 59.5012 73.5294L59.501 73.5294C56.4867 72.1171 53.3997 70.6709 50.4522 68.9866C50.1474 68.8125 49.8389 68.6396 49.5279 68.4698C48.7726 68.29 48.0135 68.1112 47.2515 67.9317C37.9912 65.7505 28.2906 63.4656 19.78 58.14C18.7712 57.5087 17.9582 56.911 17.359 56.3301C16.8039 55.792 16.1955 55.0447 16.038 54.0873C15.9994 53.852 15.9906 53.6271 16.0066 53.4134C16.0023 53.3596 16.0001 53.3051 16.0001 53.2501C16.0001 52.5511 16.3587 51.9358 16.902 51.5783C16.9543 51.5281 17.0076 51.4803 17.0616 51.4351C17.631 50.9574 18.3315 50.6859 18.8934 50.5128C19.7181 50.2588 20.7203 50.0823 21.6772 49.9388C22.3687 49.4652 23.1032 49.1031 23.7697 48.8107C24.3002 48.5779 24.8345 48.3702 25.3153 48.1845L25.4195 48.1443L25.4196 48.1443L25.4202 48.1441C25.8723 47.9696 26.2671 47.8172 26.6276 47.6624C28.8325 46.7156 30.9718 45.6446 33.1 44.5078L33.3859 44.2554C33.5405 44.119 33.6966 43.981 33.8551 43.8416C34.7263 43.0748 35.6505 42.2757 36.6473 41.5185C43.2798 36.4812 50.2527 31.6307 57.1828 26.8101L57.1829 26.8101L57.1829 26.8101L57.1829 26.8101C62.1734 23.3387 67.1416 19.8828 71.9444 16.3837C72.8372 15.7332 74.0882 15.9297 74.7386 16.8224Z" fill="white"/>
</svg>
