<svg width="100" height="102" viewBox="0 0 100 102" fill="none" xmlns="http://www.w3.org/2000/svg">
<path fill-rule="evenodd" clip-rule="evenodd" d="M25.2604 17.6662C24.7542 18.3611 24.761 19.273 25.2098 19.9498C24.9387 20.4933 24.9176 21.1532 25.2101 21.7383C25.4118 22.1416 25.6928 22.4055 25.866 22.5488C26.0559 22.7059 26.2498 22.8266 26.4094 22.9157C26.728 23.0936 27.0746 23.2366 27.3691 23.3452C27.9247 23.5501 28.508 23.71 28.8666 23.7934C28.8932 23.8079 28.9607 23.8462 29.0733 23.9277C29.2832 24.0796 29.5371 24.2986 29.8266 24.5727C30.1114 24.8423 30.3921 25.128 30.6702 25.4111L30.6744 25.4153L30.6992 25.4406L30.6993 25.4407C30.9493 25.6951 31.2355 25.9865 31.4767 26.2007C33.662 28.1407 35.6653 30.1142 37.7878 32.2111C40.0999 34.4953 42.924 36.0985 45.485 37.5523L45.4853 37.5525L45.4854 37.5525C46.172 37.9423 46.8396 38.3213 47.4735 38.6999C48.5931 39.3685 49.726 40.0664 50.8711 40.7718L50.8713 40.7719L50.8714 40.7719C52.9862 42.0747 55.1426 43.403 57.3332 44.62C58.1246 45.0596 58.9196 45.5062 59.7193 45.9553L59.7194 45.9554C61.3261 46.8579 62.9514 47.7708 64.6023 48.6587C65.11 49.104 65.6305 49.5534 66.1608 49.9878C68.0243 51.5142 70.1474 52.9745 72.8689 53.8574C73.4616 54.0497 74.1662 54.1969 74.8823 54.3188C72.2403 55.2093 69.5989 56.381 67.0621 57.5065C65.6877 58.1162 64.3439 58.7124 63.0473 59.2428C62.0823 59.6376 61.122 60.1349 60.257 60.583L60.2563 60.5833C60.031 60.7 59.812 60.8134 59.6012 60.9207C58.5233 61.4695 57.5718 61.9083 56.6225 62.1614C55.8097 62.3782 55.0809 62.7417 54.5252 63.0254L54.3211 63.1298L54.3211 63.1299C53.8144 63.3895 53.4483 63.577 53.074 63.7112C51.6963 64.2051 50.3174 64.8618 49.0371 65.5425C48.35 65.7074 47.6616 65.8743 46.9722 66.0444C36.0868 68.7309 25.1112 72.2076 16.5306 81.486C15.7807 82.2969 15.8301 83.5623 16.6411 84.3122C17.452 85.0622 18.7174 85.0127 19.4673 84.2018C20.2135 83.3949 20.9805 82.6356 21.7669 81.9197C22.0425 82.1356 22.3783 82.2819 22.7509 82.3284C23.5674 82.4305 24.3303 82.0251 24.723 81.3586C24.8805 81.2637 25.1149 81.144 25.4201 81.0077C25.7738 80.8498 26.1518 80.7007 26.495 80.5692C26.5554 80.546 26.6203 80.5214 26.687 80.496L26.6872 80.496C26.9363 80.4014 27.2111 80.297 27.3737 80.224C28.573 79.6855 29.7851 79.1847 31.0295 78.6705L31.0296 78.6705C31.3112 78.5541 31.5944 78.4371 31.8795 78.3188C33.4086 77.6843 34.9754 77.0197 36.517 76.2653C37.8168 75.6292 39.15 75.0046 40.4978 74.3732L40.498 74.3731C43.5124 72.9609 46.5993 71.5147 49.5468 69.8304C49.8516 69.6562 50.1602 69.4833 50.4712 69.3135C51.2264 69.1338 51.9855 68.955 52.7476 68.7755C62.0079 66.5943 71.7085 64.3094 80.219 58.9837C81.2278 58.3524 82.0409 57.7548 82.6401 57.1739C83.1951 56.6358 83.8036 55.8885 83.961 54.931C83.9997 54.6958 84.0084 54.4709 83.9924 54.2571C83.9968 54.2033 83.999 54.1489 83.999 54.0939C83.999 53.3949 83.6403 52.7796 83.097 52.422C83.0447 52.3718 82.9914 52.3241 82.9374 52.2788C82.3681 51.8011 81.6675 51.5297 81.1056 51.3566C80.281 51.1026 79.2787 50.9261 78.3218 50.7825C77.6303 50.309 76.8958 49.9468 76.2293 49.6544C75.6988 49.4217 75.1646 49.2139 74.6837 49.0283L74.5795 48.9881L74.5794 48.988L74.5788 48.9878C74.1267 48.8133 73.7319 48.6609 73.3714 48.5062C71.1666 47.5594 69.0272 46.4883 66.899 45.3516L66.6131 45.0992C66.4586 44.9627 66.3024 44.8248 66.1439 44.6853C65.2727 43.9185 64.3486 43.1194 63.3517 42.3623C56.7193 37.3249 49.7463 32.4745 42.8162 27.6539L42.8162 27.6539L42.8161 27.6539L42.8161 27.6538C37.8256 24.1824 32.8574 20.7265 28.0546 17.2274C27.1618 16.577 25.9108 16.7734 25.2604 17.6662Z" fill="white"/>
</svg>
