<svg width="8" height="8" viewBox="0 0 8 8" fill="none" xmlns="http://www.w3.org/2000/svg">
<path d="M3.90489 0.292705C3.93483 0.200574 4.06517 0.200574 4.09511 0.292705L4.8756 2.69483C4.88899 2.73604 4.92739 2.76393 4.97071 2.76393H7.49646C7.59333 2.76393 7.63361 2.88789 7.55524 2.94483L5.51186 4.42943C5.47681 4.4549 5.46215 4.50003 5.47554 4.54123L6.25604 6.94336C6.28597 7.03549 6.18052 7.11211 6.10215 7.05517L4.05878 5.57057C4.02373 5.5451 3.97627 5.5451 3.94122 5.57057L1.89785 7.05517C1.81948 7.11211 1.71403 7.03549 1.74396 6.94336L2.52446 4.54123C2.53785 4.50003 2.52319 4.4549 2.48814 4.42943L0.444763 2.94483C0.366392 2.88789 0.40667 2.76393 0.503542 2.76393H3.02929C3.07261 2.76393 3.11101 2.73604 3.1244 2.69483L3.90489 0.292705Z" fill="#FF0000"/>
</svg>
