<svg width="94" height="90" viewBox="0 0 94 90" fill="none" xmlns="http://www.w3.org/2000/svg">
<path d="M7.91834 40.8042C9.10333 63.2072 16.1624 74.1158 38.2753 78.1011C53.419 80.8304 70.5359 76.5172 79.7655 63.0546C89.6218 48.6778 87.7231 27.4761 73.4602 17.5096C60.9152 8.74347 41.6035 11.4789 30.4552 21.5386C21.4945 29.6244 22.2619 45.3246 31.9024 52.6853C34.6702 54.7986 40.4638 60.1595 39.211 54.5707C38.829 52.8668 37.7789 47.752 37.9237 49.4944C38.0875 51.4656 40.9948 53.9121 41.9506 55.7218C43.586 58.8182 41.9397 57.5416 39.3878 57.1563C36.2021 56.6752 32.8069 58.157 29.5486 58.0081" stroke="black" stroke-width="4" stroke-linecap="round"/>
</svg>
