<svg width="60" height="60" viewBox="0 0 60 60" fill="none" xmlns="http://www.w3.org/2000/svg">
<g clip-path="url(#clip0_263_14202)">
<path d="M27.3736 24.8594C30.6586 24.2675 34.1617 24.204 34.8967 28.2125C35.0813 29.2129 35.2717 30.834 35.0282 31.8448C34.4582 34.2263 32.469 34.8817 30.2652 35.2071C28.8517 35.4148 27.4625 35.6283 26.5405 34.4133C25.7732 33.4025 25.3175 32.0421 25.0359 30.819C24.7786 29.7067 24.4394 27.9956 24.8155 26.8567C25.2655 25.4952 26.8786 25.1837 28.2136 24.8629C30.0171 24.429 29.2532 21.6471 27.4463 22.0821C25.6221 22.5206 23.1771 23.2163 22.314 25.0613C21.3782 27.061 21.7948 29.9479 22.3532 32.004C22.8713 33.9067 23.8313 36.4371 25.5471 37.569C27.354 38.7621 30.324 38.2775 32.2659 37.7433C34.2967 37.1848 36.5605 36.2006 37.449 34.1537C38.2913 32.2083 38.0698 29.484 37.6786 27.4452C36.5859 21.7487 31.4686 21.2029 26.6063 22.0775C24.7821 22.4063 25.5552 25.186 27.3736 24.8583V24.8594Z" fill="#0F0000"/>
<path d="M40.9127 17.1346C41.3258 19.6765 43.2111 21.2111 44.3281 23.498C46.105 27.1419 46.5781 31.8807 45.3446 35.8004C44.0373 39.9542 39.8558 42.9173 35.9154 44.528C30.0388 46.9304 23.5877 46.8369 19.5331 41.6492C17.4077 38.9296 14.5877 36.6496 13.735 33.1684C12.5511 28.3384 13.6461 21.0657 17.4158 17.6504C20.7769 14.6042 25.8158 13.7492 30.1911 13.9442C35.0327 14.1611 37.9681 16.0534 41.9754 18.4973C43.5642 19.4665 45.0158 16.9742 43.4315 16.0073C37.9854 12.6842 34.5804 10.7884 28.0346 11.0838C23.2127 11.3007 18.3008 12.6184 14.8427 16.1561C11.4227 19.6523 10.4223 25.1423 10.4927 29.895C10.5873 36.1754 14.1065 39.9277 17.9754 44.4773C24.9527 52.6834 38.1031 48.4823 45.0285 42.135C48.0146 39.3969 48.8165 35.0469 48.8615 31.1019C48.8892 28.7319 48.5546 26.3042 47.7619 24.0657C46.8377 21.4569 44.1296 19.0442 43.6946 16.3673C43.3969 14.5396 40.6173 15.315 40.9127 17.1346Z" fill="#0F0000"/>
<path d="M57.6599 0.691046C55.6106 1.51374 54.2722 2.28335 52.9476 4.02566C51.8629 5.45066 51.2422 7.16066 49.9591 8.47605C48.4014 10.0707 46.4168 10.913 44.6387 12.1834C38.6883 16.4295 34.1168 23.498 29.0733 28.778C27.7902 30.1199 29.8268 32.1634 31.1122 30.818C36.1568 25.5368 40.7376 18.4187 46.7272 14.2314C48.5133 12.9818 50.446 12.0853 51.9991 10.516C54.3702 8.11605 54.9945 4.85066 58.4272 3.47182C60.1291 2.78874 59.3849 -0.00126177 57.6599 0.691046Z" fill="#0F0000"/>
<path d="M49.233 8.35143C45.1796 5.8522 42.9503 3.49143 38.1342 2.51297C34.5642 1.79066 30.6919 0.927585 27.0457 0.809893C23.5692 0.696816 21.3653 1.58643 18.4726 3.28028C14.6188 5.53835 11.2922 6.45451 8.21263 9.78566C2.93725 15.4891 0.725326 22.1376 0.614557 29.8649C0.553403 33.9703 1.1534 37.7341 2.79879 41.5037C3.98148 44.2164 5.46417 48.8514 7.72686 50.7172C8.64994 51.4787 9.51302 51.548 10.5699 51.9634C13.5146 53.123 15.3019 54.271 17.9269 56.123C20.9142 58.2322 24.1911 58.688 27.7969 59.1599C35.9569 60.2272 42.813 58.0153 48.8326 52.4503C60.5799 41.5891 62.8173 21.2364 50.6373 9.70259C49.2896 8.42643 47.2461 10.463 48.5984 11.7426C59.6084 22.1687 57.4265 40.6741 46.7938 50.4103C40.4326 56.2349 32.2149 58.1157 23.838 55.5818C20.4942 54.571 18.2269 52.2276 15.1772 50.6526C12.7172 49.381 10.2965 49.1895 8.57033 46.7007C0.911095 35.6537 1.27686 17.1541 13.3184 9.34605C15.3457 8.03066 17.7722 6.9022 19.9299 5.77028C23.7803 3.74874 26.7896 3.58143 31.0449 4.22297C33.7253 4.62682 36.5499 4.93835 39.1657 5.6422C42.6157 6.56989 44.8288 9.02528 47.7769 10.8426C49.3611 11.8199 50.8115 9.32528 49.233 8.35143Z" fill="#0F0000"/>
</g>
<defs>
<clipPath id="clip0_263_14202">
<rect width="60" height="60" fill="white"/>
</clipPath>
</defs>
</svg>
