<svg width="79" height="70" viewBox="0 0 79 70" fill="none" xmlns="http://www.w3.org/2000/svg">
<path d="M3.38867 29.8056C5.59034 28.9188 7.80772 28.0578 9.99978 27.1528C11.7307 26.4382 13.5205 25.9375 15.2567 25.2431C18.1401 24.0897 21.0537 23.0009 23.9234 21.8125C28.9995 19.7103 34.0502 17.3771 39.347 15.875C41.0507 15.3919 42.6749 14.6528 44.3678 14.1319C46.0181 13.6242 47.6571 13.1158 49.2498 12.4375C50.7486 11.7991 52.2932 11.2732 53.7776 10.5972C55.3912 9.86228 56.9442 8.99923 58.6109 8.38194C59.8673 7.91662 61.0818 7.34073 62.347 6.90278C63.4343 6.52641 64.5492 6.16088 65.6248 5.75C67.0516 5.20493 68.5106 4.74366 69.9373 4.1875C70.8271 3.84063 71.7049 3.46528 72.597 3.125C73.1085 2.9299 73.5789 2.6078 74.1178 2.5C75.1192 2.29974 75.9296 2.125 76.9998 2.125" stroke="black" stroke-width="4" stroke-linecap="round"/>
<path d="M76.9306 3.00684C76.6374 3.67695 76.5033 4.35342 76.3194 5.06239C75.7369 7.30932 75.4444 9.5833 75.0625 11.8749C73.8811 18.963 73.3796 26.1427 72.25 33.2429C71.8698 35.6328 71.4275 38.0004 71.125 40.4027C70.8792 42.3545 70.8094 44.3026 70.5 46.2499C70.2317 47.9388 70.1232 49.6538 69.875 51.3471C69.6439 52.9239 69.3501 54.5186 69.1528 56.0971C69.0102 57.2376 68.9737 58.3614 68.8472 59.4999C68.7237 60.6116 68.8604 61.7419 68.7222 62.8471C68.5364 64.3333 68.5 66.0206 68.5 67.4999" stroke="black" stroke-width="4" stroke-linecap="round"/>
<path d="M35.5693 46.3887C36.3414 46.9446 37.1369 47.3239 37.9721 47.7776C40.3102 49.0476 42.7669 50.1056 45.0693 51.4442C47.5824 52.9053 50.0756 54.4107 52.5971 55.847C54.1701 56.743 55.8379 57.5945 57.2499 58.7498C58.4965 59.7697 59.8183 60.7437 61.1249 61.6873C61.9882 62.3108 62.8079 63.1276 63.7499 63.6248C65.6262 64.615 66.4965 65.4963 68 66.9998" stroke="black" stroke-width="4" stroke-linecap="round"/>
<path d="M60 21C59.1505 21.8053 58.2991 22.6196 57.4652 23.4444C56.2114 24.6846 54.8823 25.8917 53.6777 27.1605C52.2832 28.6292 50.4558 29.953 48.7912 31.1975C47.1416 32.4308 45.5009 33.762 44.0513 35.1667C42.2953 36.8682 41.0151 38.9137 39.6923 40.8642C38.8332 42.131 37.9691 43.3899 37.1209 44.6605C36.8942 45 36.3995 45.8317 36 46" stroke="black" stroke-width="4" stroke-linecap="round"/>
<path d="M59.4019 19.926C59.1357 20.1549 58.6749 20.2838 58.352 20.4129C57.5962 20.7151 56.9229 21.148 56.1999 21.5143C53.9061 22.6762 51.8511 24.1541 49.6021 25.3937C47.3288 26.6468 45.1296 28.0832 42.8223 29.2683C40.5779 30.4212 38.7416 32.194 36.7153 33.6615C35.2699 34.7083 33.6602 35.4568 32.1985 36.4807C30.3513 37.7746 28.5971 39.1909 26.6051 40.2653C25.7934 40.7031 24.9374 41.2178 24.0902 41.5715C23.7705 41.705 23.3484 41.9701 22.9999 42.0002" stroke="black" stroke-width="4" stroke-linecap="round"/>
<path d="M21.5 41C21.4604 40.6831 19.8572 40.0893 19.5972 39.9723C17.8947 39.2061 16.2379 38.3956 14.6528 37.4028C12.6815 36.1683 10.5538 35.3895 8.6875 34.007C7.1081 32.8371 5.2027 32.0387 3.4375 31.1945C2.67171 30.8283 2.8663 30.5 2 30.5" stroke="black" stroke-width="4" stroke-linecap="round"/>
</svg>
