<svg width="17" height="16" viewBox="0 0 17 16" fill="none" xmlns="http://www.w3.org/2000/svg">
<path d="M15.1719 0.720041C14.9499 0.729832 14.7432 0.794468 14.5612 0.868041C14.3907 0.936625 13.7393 1.21602 12.7132 1.65604C11.6862 2.09644 10.3264 2.68025 8.87585 3.30404C5.97474 4.55162 2.71313 5.95595 1.04252 6.67471C0.979698 6.70173 0.760502 6.77175 0.527852 6.95337C0.295202 7.135 0.0478516 7.51135 0.0478516 7.93071C0.0478516 8.26886 0.209007 8.6048 0.411852 8.80538C0.614696 9.00595 0.829332 9.10503 1.01318 9.18004C1.68026 9.45223 3.74917 10.2989 4.13985 10.4587C4.27734 10.8799 5.02619 13.1706 5.19985 13.732C5.31433 14.1025 5.4233 14.3346 5.56519 14.5187C5.63613 14.6108 5.71859 14.6915 5.81852 14.7547C5.85846 14.78 5.90226 14.7994 5.94652 14.8174L5.94918 14.8187C5.95938 14.8228 5.96818 14.8298 5.97852 14.8334C5.99803 14.8402 6.01108 14.841 6.03719 14.8467C6.14117 14.8803 6.24616 14.9014 6.33985 14.9014C6.73932 14.9014 6.98385 14.6814 6.98385 14.6814L6.99852 14.6707L9.05318 12.8934L11.5452 15.2507C11.5803 15.3003 11.9075 15.7494 12.6292 15.7494C13.0577 15.7494 13.3976 15.5344 13.6159 15.3054C13.8341 15.0764 13.9701 14.8358 14.0279 14.5334V14.532C14.0819 14.2462 16.3785 2.45604 16.3785 2.45604L16.3745 2.47204C16.4417 2.16517 16.4594 1.87939 16.3852 1.59737C16.311 1.31536 16.1155 1.04534 15.8732 0.900041C15.6309 0.754772 15.3938 0.710251 15.1719 0.720041ZM15.0439 2.14671C15.0406 2.16663 15.0463 2.15661 15.0412 2.18004L15.0399 2.18804L15.0385 2.19604C15.0385 2.19604 12.7704 13.8354 12.6865 14.2787C12.6927 14.2452 12.6646 14.3118 12.6359 14.352C12.5952 14.324 12.5119 14.288 12.5119 14.288L12.4985 14.2734L9.09452 11.0534L6.68785 13.1334L7.40385 10.2667C7.40385 10.2667 11.8795 5.63369 12.1492 5.36404C12.3663 5.14832 12.4119 5.07312 12.4119 4.99871C12.4119 4.89904 12.3599 4.82671 12.2439 4.82671C12.1394 4.82671 11.9989 4.92825 11.9239 4.97604C10.9455 5.59969 6.65048 8.10292 4.72518 9.22271C4.41922 9.09749 2.2936 8.22739 1.57318 7.93337C1.57864 7.93099 1.57684 7.93183 1.58252 7.92937C3.25356 7.21043 6.51382 5.80611 9.41452 4.55871C10.8649 3.93501 12.2257 3.35075 13.2519 2.91071C14.2622 2.47744 14.9642 2.17925 15.0439 2.14671Z" fill="black"/>
</svg>
