<svg width="22" height="14" viewBox="0 0 22 14" fill="none" xmlns="http://www.w3.org/2000/svg">
<path fill-rule="evenodd" clip-rule="evenodd" d="M10.7251 13.933H12.0431C12.0431 13.933 12.4391 13.885 12.6421 13.643C12.8351 13.416 12.8351 12.997 12.8351 12.997C12.8351 12.997 12.8061 11.024 13.6311 10.734C14.4441 10.446 15.4751 12.639 16.5751 13.482C17.4151 14.126 18.0451 13.988 18.0451 13.988L20.9891 13.942C20.9891 13.942 22.5311 13.835 21.8021 12.482C21.7461 12.375 21.3891 11.484 19.6291 9.65599C17.7841 7.74999 18.0321 8.05699 20.2491 4.75399C21.5951 2.74099 22.1461 1.51199 21.9671 0.988991C21.8151 0.497991 20.8121 0.618991 20.8121 0.618991L17.5101 0.650991C17.5101 0.650991 17.2631 0.619991 17.0841 0.742991C16.9051 0.864991 16.7961 1.14299 16.7961 1.14299C16.7961 1.14299 16.2721 2.70999 15.5721 4.03199C14.0841 6.82599 13.4921 6.97999 13.2591 6.79599C12.7051 6.39599 12.8471 5.17799 12.8471 4.30599C12.8471 1.60099 13.2171 0.464991 12.1311 0.172991C11.7741 0.0799908 11.5071 0.0189908 10.5871 0.00299076C9.40412 -0.0110092 8.40712 0.012991 7.84112 0.321991C7.47112 0.528991 7.18112 0.988991 7.34712 1.01199C7.56712 1.04399 8.06112 1.16199 8.32312 1.56199C8.66612 2.08099 8.65212 3.23799 8.65212 3.23799C8.65212 3.23799 8.84512 6.42899 8.19912 6.82499C7.74512 7.09399 7.14012 6.53899 5.82012 4.00299C5.14612 2.71299 4.63712 1.26899 4.63712 1.26899C4.63712 1.26899 4.54012 1.00699 4.36312 0.852991C4.15512 0.683991 3.85212 0.622991 3.85212 0.622991L0.703119 0.652991C0.703119 0.652991 0.236119 0.669991 0.0721193 0.898991C-0.0808807 1.09899 0.0571193 1.52899 0.0571193 1.52899C0.0571193 1.52899 2.51912 7.96699 5.31112 11.209C7.86912 14.181 10.7711 13.989 10.7711 13.989L10.7251 13.933Z" fill="black"/>
</svg>
