<svg width="455" height="89" viewBox="0 0 455 89" fill="none" xmlns="http://www.w3.org/2000/svg">
<path d="M2.22289 46.0596C30.4236 61.9346 51.6797 67.3267 84.0967 61.2932C113.371 55.8447 143.503 37.9062 169.508 24.2577C201.704 7.35959 266.934 -11.5569 292.114 24.0412C311.666 51.6821 293.812 90.6109 256.335 86.0491C241.887 84.2905 232.165 67.5549 236.573 54.3552C241.334 40.0985 260.321 30.847 273.646 25.8154C309.435 12.3025 338.778 41.8968 373.054 42.9445C405.077 43.9235 426.375 27.2339 447.458 5.76278C449.264 3.92362 449.696 14.3864 450.064 16.9663C451.411 26.4237 452.791 21.9445 451.772 14.7937C451.117 10.1948 452.257 0.0557148 446.14 3.59268C441.727 6.14448 431.947 7.97319 426.693 8.72184" stroke="white" stroke-width="4" stroke-linecap="round"/>
</svg>
