<svg width="24" height="24" viewBox="0 0 24 24" fill="none" xmlns="http://www.w3.org/2000/svg">
<path d="M23.6673 5.64183C23.6542 5.1385 23.6153 4.63617 23.5507 4.13683C23.4635 3.69947 23.3184 3.27572 23.119 2.87683C22.9105 2.44412 22.6304 2.04969 22.2907 1.71016C21.9478 1.3744 21.554 1.09485 21.124 0.88183C20.7246 0.686348 20.3008 0.545098 19.864 0.461829C19.3694 0.387745 18.8706 0.344883 18.3707 0.333496H5.64232C5.13899 0.346605 4.63666 0.385545 4.13732 0.450163C3.69996 0.537276 3.27621 0.68245 2.87732 0.88183C2.44461 1.09036 2.05018 1.3704 1.71065 1.71016C1.37489 2.05306 1.09534 2.44679 0.882318 2.87683C0.686836 3.27625 0.545587 3.7 0.462318 4.13683C0.388234 4.63142 0.345371 5.13018 0.333984 5.63016V18.3585C0.347094 18.8618 0.386034 19.3642 0.450651 19.8635C0.537764 20.3009 0.682938 20.7246 0.882318 21.1235C1.09084 21.5562 1.37089 21.9506 1.71065 22.2902C2.05355 22.6259 2.44728 22.9055 2.87732 23.1185C3.27674 23.314 3.70049 23.4552 4.13732 23.5385C4.63191 23.6126 5.13067 23.6554 5.63065 23.6668H18.359C18.8623 23.6537 19.3646 23.6148 19.864 23.5502C20.3013 23.4631 20.7251 23.3179 21.124 23.1185C21.5567 22.91 21.9511 22.6299 22.2907 22.2902C22.6264 21.9473 22.906 21.5535 23.119 21.1235C23.3145 20.7241 23.4557 20.3003 23.539 19.8635C23.6131 19.3689 23.6559 18.8701 23.6673 18.3702V5.64183ZM12.269 20.1668C10.8679 20.1599 9.49131 19.7987 8.26732 19.1168L3.83398 20.2835L5.00065 15.9435C4.24828 14.6794 3.84563 13.2379 3.83398 11.7668C3.83863 10.1136 4.33239 8.49866 5.25307 7.12549C6.17376 5.75231 7.48019 4.68228 9.00784 4.05016C10.5355 3.41805 12.216 3.25211 13.8378 3.57326C15.4596 3.8944 16.95 4.68827 18.1215 5.85487C19.2929 7.02147 20.093 8.50863 20.4209 10.129C20.7488 11.7495 20.5898 13.4307 19.9641 14.9609C19.3383 16.4912 18.2737 17.8021 16.9044 18.7285C15.5351 19.6548 13.9222 20.1553 12.269 20.1668ZM12.269 4.8485C11.0321 4.86265 9.82105 5.20431 8.75913 5.83869C7.69722 6.47307 6.82238 7.37751 6.22366 8.45994C5.62495 9.54236 5.32376 10.7641 5.35075 12.0008C5.37774 13.2375 5.73195 14.4449 6.37732 15.5002L6.54065 15.7685L5.84065 18.3235L8.50065 17.6002L8.75732 17.7518C9.81849 18.3769 11.0258 18.7109 12.2573 18.7202C14.1138 18.7202 15.8943 17.9827 17.2071 16.6699C18.5198 15.3572 19.2573 13.5767 19.2573 11.7202C19.2573 9.86365 18.5198 8.08317 17.2071 6.77042C15.8943 5.45766 14.1138 4.72016 12.2573 4.72016L12.269 4.8485ZM16.3523 14.7885C16.1995 15.0434 15.9949 15.2633 15.7517 15.4342C15.5086 15.605 15.2322 15.7229 14.9407 15.7802C14.5049 15.8598 14.0564 15.8318 13.634 15.6985C13.2366 15.5742 12.847 15.4262 12.4673 15.2552C11.025 14.5314 9.795 13.4461 8.89732 12.1052C8.40952 11.4839 8.11354 10.7338 8.04565 9.94683C8.0387 9.61992 8.10055 9.29519 8.22717 8.99372C8.35379 8.69224 8.54236 8.42074 8.78065 8.19683C8.85084 8.11725 8.93695 8.05328 9.03341 8.00907C9.12988 7.96486 9.23455 7.94138 9.34065 7.94016H9.66732C9.79565 7.94016 9.97065 7.94016 10.134 8.30183C10.2973 8.6635 10.729 9.7485 10.7873 9.8535C10.816 9.90946 10.8309 9.97145 10.8309 10.0343C10.8309 10.0972 10.816 10.1592 10.7873 10.2152C10.7357 10.3419 10.6649 10.46 10.5773 10.5652C10.4723 10.6935 10.3557 10.8452 10.2623 10.9385C10.169 11.0318 10.0523 11.1485 10.169 11.3585C10.4864 11.8942 10.8793 12.3814 11.3357 12.8052C11.8326 13.2442 12.4007 13.5954 13.0157 13.8435C13.2257 13.9485 13.354 13.9368 13.4707 13.8435C13.5873 13.7502 13.9957 13.2368 14.1357 13.0268C14.2757 12.8168 14.4157 12.8518 14.6023 12.9218C14.789 12.9918 15.8273 13.4935 16.0373 13.5985C16.2473 13.7035 16.3757 13.7502 16.434 13.8435C16.4846 14.1488 16.4565 14.462 16.3523 14.7535V14.7885Z" fill="black"/>
</svg>
